<svg xmlns="http://www.w3.org/2000/svg" width="30.031" height="30" viewBox="0 0 30.031 30">
  <defs>
    <style>
      .cls-1 {
        fill: #fff;
        fill-rule: evenodd;
      }
    </style>
  </defs>
  <path class="cls-1" d="M127.663,133.325l1.118,0.039a4.347,4.347,0,0,1,.959.04h1.518a1.08,1.08,0,0,1,.758.961h-0.04c-0.013.079-.026,0.16-0.04,0.239H131.9v0.121l-0.079.04v0.08l-0.959.92q-1.4,1.419-2.8,2.84H123.79l-0.959,1-0.2.16a8.478,8.478,0,0,1-.959,1l-1.318,1.361a6,6,0,0,0-.719.64l-2.036,2.08h-0.12l-0.04.08-0.2.04v0.04a1.205,1.205,0,0,1-.758-0.16l-0.2-.24-0.08-.04c-0.013-.053-0.027-0.107-0.04-0.16h-0.04v-0.08h-0.04v-0.08h-0.04v-0.48h0.04c0.014-.054.027-0.107,0.04-0.16h0.04v-0.12l0.08-.04v-0.08h0.04a0.449,0.449,0,0,0,.12-0.2h0.08a0.225,0.225,0,0,1,.2-0.2v-0.081h0.08v-0.079h0.08v-0.08h0.08v-0.08H117c0.029-.111.011-0.09,0.12-0.12v-0.08H117.2v-0.081h0.08v-0.079h0.08v-0.08h0.08v-0.08h0.08c0.029-.111.011-0.09,0.12-0.121v-0.079h0.08v-0.08H117.8v-0.081h0.08v-0.08h0.08V141.6h0.08c0.029-.11.011-0.089,0.12-0.119v-0.081h0.08v-0.079h0.08v-0.081H118.4v-0.08h0.08v-0.08h0.08c0.029-.11.011-0.089,0.12-0.119v-0.081h0.08v-0.079h0.08a2.176,2.176,0,0,1,.559-0.6v-0.04l1.318-1.28a1.927,1.927,0,0,1,.559-0.52v-0.08h0.08v-0.08h0.08v-0.08h0.079c0.029-.11.011-0.09,0.12-0.12v-0.08h0.08v-0.08h0.08v-0.08h0.08v-0.08h0.08V137.6c0.11-.029.089-0.011,0.119-0.12h0.08v-0.08h0.08v-0.08h0.08v-0.08h0.08a10.072,10.072,0,0,0,.04-1.56v-2.8a1.879,1.879,0,0,0,.2-0.2,7.434,7.434,0,0,0,.878-0.841l2.037-2,0.559-.6h0.08c0.013-.027.026-0.053,0.04-0.08h0.08c0.013-.027.026-0.053,0.04-0.08a0.971,0.971,0,0,1,.519-0.08v0.04h0.119v0.04h0.08c0.014,0.027.027,0.053,0.04,0.08h0.12v0.04l0.24,0.2v0.08h0.04v0.08h0.04v0.12h0.039v0.68c0.069,0.247-.03.667,0.04,0.92h0.04v2.041Zm-7.348,1.76-0.359-.12v-0.04l-0.24-.04v-0.04h-0.08v-0.04l-0.239-.04v-0.04h-0.12v-0.04l-0.279-.04V134.6l-0.28-.039v-0.04l-1.558-.281h-0.519v-0.039a5.331,5.331,0,0,0-1.278.039h-0.519v0.041h-0.319v0.039h-0.28v0.041h-0.2v0.04h-0.24v0.039h-0.16v0.041l-0.359.04-1.438.48v0.04l-0.16.04v0.039H111.61v0.041h-0.12v0.04l-0.24.08v0.04h-0.08v0.04h-0.08v0.04l-0.239.08c-0.013.026-.027,0.053-0.04,0.08l-0.24.08c-0.013.026-.026,0.053-0.04,0.08l-0.159.04c-0.014.026-.027,0.053-0.04,0.08l-0.16.04v0.04l-0.12.04-0.04.079h-0.08c-0.026.041-.053,0.081-0.08,0.121h-0.079c-0.014.026-.027,0.053-0.04,0.08h-0.08c-0.027.04-.054,0.08-0.08,0.12h-0.08l-0.08.12h-0.08c-0.04.053-.08,0.106-0.119,0.16h-0.08l-0.2.24h-0.08l-0.279.32-0.679.64v0.08l-0.24.2v0.08l-0.16.12v0.08l-0.12.08v0.08l-0.119.08v0.08l-0.08.04v0.08l-0.12.08v0.08l-0.08.04v0.08c-0.026.014-.053,0.027-0.08,0.04-0.013.053-.026,0.107-0.04,0.16l-0.08.04c-0.013.054-.026,0.107-0.04,0.16l-0.079.04c-0.027.08-.054,0.16-0.08,0.24l-0.08.04v0.08h-0.04v0.08h-0.04v0.08h-0.04v0.08h-0.04v0.08H106.3c-0.026.081-.053,0.16-0.08,0.24h-0.04v0.12h-0.04v0.081H106.1v0.079h-0.04v0.08h-0.04v0.121h-0.04v0.08h-0.04c-0.013.079-.027,0.159-0.04,0.239h-0.04v0.08h-0.04l-0.4,1.441q-0.04.36-.08,0.72H105.3v0.32h-0.04v0.52h-0.04a5.293,5.293,0,0,0,.04,1.28v0.52h0.04v0.32h0.04v0.28h0.04v0.2h0.04v0.24h0.04v0.16h0.04v0.2h0.039v0.16h0.04c0.014,0.094.027,0.187,0.04,0.28h0.04v0.12h0.04v0.16h0.04v0.12h0.04v0.12h0.04v0.12h0.04v0.08h0.04c0.013,0.08.027,0.16,0.04,0.24h0.04v0.08h0.04v0.12h0.04c0.013,0.054.026,0.107,0.04,0.16h0.039v0.081h0.04v0.119h0.04c0.027,0.081.054,0.16,0.08,0.241h0.04v0.079h0.04v0.081h0.04c0.027,0.079.053,0.159,0.08,0.239l0.08,0.04c0.026,0.081.053,0.16,0.08,0.24l0.079,0.041c0.014,0.053.027,0.106,0.04,0.16,0.027,0.013.054,0.026,0.08,0.04,0.014,0.053.027,0.106,0.04,0.16l0.08,0.039v0.081h0.04c0.013,0.04.027,0.079,0.04,0.12l0.08,0.04v0.08l0.12,0.08v0.08l0.119,0.08v0.08l0.12,0.08v0.08l0.16,0.12v0.08l0.24,0.2v0.08l0.679,0.64,0.279,0.32h0.08l0.2,0.24h0.08l0.119,0.16h0.08l0.08,0.12h0.08c0.026,0.04.053,0.08,0.08,0.12h0.08c0.026,0.04.053,0.08,0.08,0.12h0.079c0.014,0.026.027,0.053,0.04,0.08h0.08l0.04,0.08,0.12,0.04v0.04l0.16,0.04,0.04,0.08,0.159,0.04c0.014,0.026.027,0.053,0.04,0.08l0.24,0.08c0.013,0.027.027,0.053,0.04,0.08h0.08v0.04h0.08v0.04h0.079v0.04h0.08v0.04h0.08v0.04h0.08v0.04l0.24,0.08v0.04l0.2,0.04v0.04h0.08v0.04h0.12v0.04h0.08v0.04l0.239,0.04v0.04h0.08v0.04l0.36,0.08v0.04h0.159v0.04h0.12v0.04l0.28,0.04v0.04h0.16v0.04l0.359,0.04v0.04h0.24v0.04h0.2v0.04h0.28v0.04l0.838,0.04v0.04a5.275,5.275,0,0,0,1.278-.04l0.839-.04v-0.04h0.279v-0.04h0.2v-0.04h0.24v-0.04h0.16v-0.04l0.359-.04v-0.04h0.12v-0.04H119v-0.04h0.119v-0.04h0.16v-0.04h0.12v-0.04h0.12v-0.04h0.119v-0.04h0.08v-0.04l0.24-.04v-0.04h0.08v-0.04h0.12v-0.04l0.159-.04v-0.04h0.08v-0.04h0.12v-0.04l0.24-.08v-0.04h0.08v-0.04h0.079v-0.04l0.24-.08,0.04-.08,0.24-.08,0.039-.08,0.16-.04c0.013-.027.027-0.053,0.04-0.08l0.16-.04c0.013-.027.027-0.053,0.04-0.08h0.08v-0.04l0.119-.04,0.04-.08h0.08c0.014-.027.027-0.053,0.04-0.08l0.12-.04,0.08-.12h0.08c0.026-.04.053-0.08,0.08-0.12h0.079l0.12-.16h0.08l0.2-.24h0.08l0.4-.441,0.559-.519v-0.08l0.24-.2v-0.08l0.16-.12v-0.08l0.119-.08v-0.08l0.12-.08c0.013-.04.027-0.08,0.04-0.121l0.08-.039v-0.08c0.026-.014.053-0.027,0.08-0.04,0.013-.041.026-0.08,0.04-0.12h0.04v-0.081l0.08-.039c0.013-.054.026-0.107,0.04-0.16l0.079-.04c0.014-.054.027-0.107,0.04-0.16l0.08-.041c0.027-.08.053-0.159,0.08-0.24l0.08-.04v-0.08h0.04v-0.08h0.04v-0.079h0.04v-0.081h0.04v-0.079h0.04v-0.081h0.04c0.026-.079.053-0.16,0.079-0.24h0.04v-0.12h0.04c0.014-.053.027-0.106,0.04-0.16h0.04q0.24-.718.479-1.44c0.014-.12.027-0.24,0.04-0.36h0.04v-0.16h0.04v-0.24h0.04v-0.2h0.04c0.027-.24.053-0.48,0.08-0.72v-0.4h0.04a5.343,5.343,0,0,0-.04-1.28c-0.013-.28-0.027-0.56-0.04-0.84h-0.04v-0.281h-0.04v-0.2h-0.04v-0.24h-0.04c-0.013-.12-0.026-0.24-0.04-0.36h-0.04v-0.16h-0.04c-0.013-.094-0.026-0.187-0.04-0.281h-0.039v-0.119h-0.04v-0.16h-0.04V141.6h-0.04v-0.119h-0.04v-0.121h-0.04v-0.08h-0.04c-0.013-.08-0.027-0.16-0.04-0.239h-0.04c-0.04-.121-0.08-0.24-0.12-0.36a9.682,9.682,0,0,0,2.556-.121l0.519-.08v-0.039l0.12-.041v-0.04c0.078-.019.053,0.024,0.08,0.04a1.677,1.677,0,0,1,.2.6c0.177,0.456.252,1.027,0.4,1.521,0.013,0.173.026,0.346,0.04,0.52h0.04v0.28h0.04v0.4h0.04v0.52a4.536,4.536,0,0,1,0,1.52v0.52H129.9v0.4h-0.04v0.28h-0.04v0.28c-0.056.188-.1,0.458-0.16,0.64v0.2h-0.04v0.16h-0.04v0.16h-0.04v0.16H129.5v0.16h-0.04v0.16h-0.04v0.12h-0.039v0.12h-0.04v0.121H129.3c-0.014.093-.027,0.186-0.04,0.279h-0.04v0.081h-0.04c-0.027.119-.053,0.239-0.08,0.36h-0.04v0.08h-0.04v0.119h-0.04c-0.013.067-.026,0.134-0.04,0.2H128.9v0.08h-0.04v0.121h-0.04c-0.026.08-.053,0.16-0.079,0.239H128.7v0.08h-0.04v0.121h-0.04l-0.08.239H128.5v0.081h-0.04c-0.027.079-.053,0.16-0.08,0.24l-0.08.04v0.08h-0.04v0.08h-0.04v0.08h-0.04v0.08l-0.079.039c-0.027.081-.054,0.161-0.08,0.241l-0.08.04v0.079l-0.08.041c-0.013.053-.027,0.106-0.04,0.16l-0.08.04v0.08l-0.08.039v0.081l-0.08.04v0.08h-0.039c-0.014.04-.027,0.08-0.04,0.12l-0.08.04v0.08l-0.12.08v0.08l-0.12.08v0.08l-0.12.08v0.08l-0.159.12v0.08l-0.16.12a8.99,8.99,0,0,1-1.038,1.12l-0.4.44h-0.08l-0.2.24h-0.08l-0.16.2h-0.08l-0.12.16h-0.079c-0.027.04-.054,0.08-0.08,0.12h-0.08c-0.027.04-.054,0.08-0.08,0.12h-0.08l-0.08.12h-0.08c-0.013.027-.026,0.053-0.04,0.08l-0.119.04v0.04h-0.08c-0.014.027-.027,0.053-0.04,0.08h-0.08l-0.04.08h-0.08c-0.013.027-.027,0.053-0.04,0.08l-0.16.04c-0.013.027-.026,0.054-0.04,0.081l-0.119.039v0.04h-0.08v0.04h-0.08v0.041h-0.08c-0.013.026-.027,0.052-0.04,0.079h-0.08v0.041h-0.08v0.039h-0.08v0.04h-0.079l-0.04.08-0.24.081v0.039h-0.08v0.04l-0.239.08v0.04h-0.12v0.04h-0.08v0.041l-0.24.08v0.039h-0.119v0.04h-0.08v0.04h-0.12v0.04h-0.08v0.04h-0.12v0.04h-0.08v0.04l-0.359.081v0.039h-0.08v0.041l-0.279.039v0.04h-0.12v0.04H120v0.04h-0.12v0.04h-0.16v0.04h-0.159v0.04H119.4v0.04h-0.16v0.04h-0.16v0.041h-0.2v0.039h-0.2v0.04h-0.2v0.04h-0.239v0.041l-0.559.039v0.04l-1.6.081-1.4-.04v-0.041h-0.36v-0.04h-0.319l-1.877-.4a14.089,14.089,0,0,1-2.716-1.16h-0.08v-0.04h-0.08v-0.039h-0.079v-0.041h-0.08l-0.04-.079-0.24-.081v-0.04l-0.12-.039c-0.013-.027-0.026-0.054-0.04-0.081l-0.159-.04v-0.04l-0.12-.04-0.04-.08h-0.08c-0.013-.027-0.027-0.053-0.04-0.08h-0.08v-0.04l-0.12-.04c-0.013-.027-0.026-0.053-0.04-0.08H107.9c-0.027-.04-0.054-0.08-0.08-0.12h-0.08l-0.08-.12h-0.08c-0.026-.04-0.053-0.08-0.08-0.12h-0.08l-0.119-.16h-0.08c-0.027-.04-0.054-0.08-0.08-0.12H107.1c-0.013-.027-0.027-0.053-0.04-0.08h-0.08l-0.2-.24H106.7l-0.48-.52-0.679-.64v-0.08l-0.239-.2v-0.08l-0.2-.16v-0.08l-0.16-.12v-0.08l-0.119-.08v-0.08l-0.12-.08v-0.08l-0.12-.08v-0.08l-0.08-.04c-0.013-.04-0.026-0.08-0.04-0.12h-0.04v-0.08l-0.08-.04v-0.081l-0.079-.039v-0.08l-0.08-.04c-0.014-.054-0.027-0.107-0.04-0.16l-0.08-.041c-0.013-.039-0.027-0.079-0.04-0.119h-0.04c-0.027-.08-0.053-0.16-0.08-0.241l-0.08-.039v-0.08h-0.04v-0.08h-0.04v-0.08H103.7v-0.08a14.106,14.106,0,0,1-1.158-2.721c-0.013-.107-0.026-0.213-0.04-0.32h-0.04v-0.16h-0.039v-0.16h-0.04v-0.16h-0.04v-0.2h-0.04c-0.014-.133-0.027-0.267-0.04-0.4h-0.04v-0.24h-0.04v-0.28h-0.04c-0.013-.227-0.027-0.453-0.04-0.68h-0.04v-0.52a4.51,4.51,0,0,1,0-1.52v-0.52h0.04c0.013-.227.027-0.454,0.04-0.68h0.04v-0.28c0.055-.189.1-0.458,0.16-0.64v-0.2h0.04v-0.161h0.04V141.6h0.039v-0.16h0.04v-0.16h0.04v-0.16h0.04v-0.12h0.04v-0.12h0.04v-0.12h0.04V140.6h0.04v-0.12h0.04v-0.08h0.04c0.027-.12.053-0.24,0.08-0.36h0.04v-0.08h0.04v-0.12h0.04v-0.08h0.04v-0.12H103.1v-0.08h0.04v-0.12h0.04c0.027-.08.054-0.16,0.08-0.24h0.04v-0.08h0.04v-0.12h0.04c0.027-.08.053-0.16,0.08-0.24h0.04v-0.08h0.04c0.026-.08.053-0.16,0.08-0.24l0.079-.04v-0.08h0.04v-0.08h0.04v-0.08h0.04v-0.08l0.08-.04c0.027-.08.053-0.16,0.08-0.24h0.04c0.013-.04.027-0.08,0.04-0.12l0.08-.04c0.013-.054.026-0.106,0.04-0.16h0.04c0.013-.04.026-0.08,0.04-0.12l0.079-.04v-0.08h0.04c0.014-.04.027-0.08,0.04-0.12l0.08-.04v-0.08l0.12-.08v-0.08l0.08-.04v-0.08l0.12-.08v-0.08l0.119-.08v-0.08l0.16-.12v-0.08l0.12-.08v-0.04l0.08-.041v-0.079l0.239-.2v-0.08l0.6-.561c0.187-.2.373-0.4,0.56-0.6h0.079l0.2-.24h0.08l0.16-.2h0.08l0.119-.16h0.08c0.027-.04.054-0.079,0.08-0.12h0.08c0.027-.039.053-0.08,0.08-0.119h0.08c0.013-.027.026-0.054,0.04-0.08h0.08l0.079-.12h0.08c0.014-.027.027-0.054,0.04-0.081h0.08l0.04-.079h0.08l0.04-.08h0.08c0.013-.027.026-0.054,0.04-0.08l0.159-.04c0.014-.027.027-0.054,0.04-0.08l0.12-.041v-0.039h0.08v-0.04h0.08v-0.041h0.08c0.013-.026.026-0.053,0.04-0.079h0.08v-0.04h0.079v-0.041h0.08v-0.039h0.08c0.013-.027.027-0.054,0.04-0.08h0.08v-0.041l0.24-.08v-0.039l0.239-.081v-0.04h0.12v-0.04h0.08v-0.04l0.239-.08v-0.04h0.12v-0.04h0.08v-0.04h0.12V132h0.08v-0.04h0.12v-0.04h0.079v-0.039l0.36-.081v-0.04h0.08v-0.04l0.279-.04v-0.04h0.12V131.6h0.12v-0.04h0.12v-0.04l0.319-.04v-0.04h0.16V131.4h0.16v-0.039h0.159v-0.041h0.2v-0.04l0.4-.04V131.2h0.24v-0.04h0.28v-0.04h0.279v-0.04h0.36v-0.04h0.559a4.492,4.492,0,0,1,1.517,0h0.559v0.04h0.36v0.04h0.279v0.04h0.28v0.04l0.439,0.04v0.04l0.4,0.04v0.041l0.32,0.039v0.04h0.16v0.04h0.159v0.04h0.16v0.04H120v0.04h0.12v0.04h0.12v0.04H120.4v0.04h0.12v0.04l0.2,0.04v0.04a1.124,1.124,0,0,0-.2.24v0.2h-0.04v0.161h-0.04v0.16H120.4v0.16h-0.04v0.16h-0.04v2.16Zm3.435,6.641,0.12,0.4h0.039v0.12h0.04v0.119h0.04v0.12h0.04c0.014,0.094.027,0.187,0.04,0.281h0.04l0.24,1.24v0.44h0.04v0.6a5.457,5.457,0,0,1-.16,1.48c-0.013.133-.027,0.267-0.04,0.4h-0.04c-0.013.107-.027,0.214-0.04,0.32h-0.04c-0.013.094-.026,0.187-0.04,0.28h-0.04v0.12h-0.04v0.12h-0.04v0.12H123.87v0.08h-0.04v0.12h-0.04v0.08h-0.04v0.12h-0.04c-0.014.054-.027,0.107-0.04,0.16h-0.04v0.08h-0.04v0.12h-0.04c-0.013.054-.027,0.107-0.04,0.16h-0.04c-0.013.054-.026,0.107-0.04,0.16l-0.08.04c-0.026.081-.053,0.16-0.08,0.241l-0.079.039c-0.014.054-.027,0.107-0.04,0.16h-0.04c-0.014.041-.027,0.08-0.04,0.12l-0.08.041v0.079h-0.04l-0.04.121-0.08.039v0.081l-0.12.079v0.08l-0.119.08v0.08l-0.2.161v0.08c-0.133.119-.266,0.24-0.4,0.36l-0.52.559h-0.079l-0.16.2h-0.08l-0.08.12h-0.08c-0.026.04-.053,0.08-0.08,0.12h-0.079c-0.014.027-.027,0.053-0.04,0.08l-0.12.039v0.041H120.6c-0.013.026-.027,0.053-0.04,0.08l-0.12.04v0.04l-0.16.04-0.039.08-0.24.08c-0.013.027-.027,0.053-0.04,0.08l-0.16.039v0.041l-0.16.04v0.04h-0.119v0.04h-0.08v0.039l-0.16.041v0.04h-0.12v0.04h-0.08v0.039l-0.2.041v0.04h-0.12v0.04h-0.12v0.04h-0.12v0.04l-0.279.04v0.04l-0.32.04v0.04h-0.2v0.04h-0.2v0.04h-0.24v0.04H117v0.04h-0.44a4.88,4.88,0,0,1-1.836-.08h-0.24l-1.358-.36v-0.04h-0.08v-0.041h-0.12v-0.039h-0.079v-0.04h-0.12v-0.04l-0.16-.041v-0.039h-0.08v-0.04l-0.359-.121c-0.014-.026-0.027-0.053-0.04-0.079h-0.08v-0.04h-0.08v-0.041h-0.08v-0.039h-0.08c-0.013-.027-0.026-0.054-0.04-0.08l-0.159-.04-0.04-.08h-0.08l-0.04-.08h-0.08v-0.041l-0.12-.039c-0.013-.027-0.026-0.053-0.04-0.08h-0.08l-0.079-.12h-0.08c-0.027-.04-0.054-0.08-0.08-0.12h-0.08c-0.053-.067-0.107-0.133-0.16-0.2h-0.08l-0.679-.719-0.239-.2v-0.08l-0.2-.161v-0.08l-0.12-.08v-0.08l-0.119-.079v-0.081l-0.08-.039v-0.081l-0.08-.04v-0.079l-0.08-.041v-0.079l-0.08-.041c-0.013-.053-0.027-0.106-0.04-0.16l-0.08-.039v-0.081h-0.04v-0.079h-0.04v-0.081h-0.04v-0.08l-0.079-.04-0.12-.36h-0.04v-0.08h-0.04c-0.013-.053-0.027-0.106-0.04-0.16h-0.04v-0.12h-0.04v-0.08h-0.04v-0.12h-0.04v-0.08H108.1v-0.12h-0.04v-0.12h-0.04v-0.12h-0.04v-0.16h-0.039v-0.12H107.9l-0.24-1.24v-0.44h-0.04a4.382,4.382,0,0,1,.04-1.12v-0.44c0.081-.285.112-0.651,0.2-0.92v-0.16h0.04v-0.16h0.04v-0.12h0.039v-0.161h0.04v-0.12h0.04v-0.119h0.04v-0.12h0.04v-0.08h0.04v-0.12h0.04v-0.08h0.04v-0.12h0.04c0.013-.054.027-0.107,0.04-0.161h0.04v-0.079h0.04v-0.121h0.04c0.013-.053.026-0.107,0.04-0.16h0.04v-0.08l0.079-.04v-0.08h0.04v-0.08h0.04v-0.08h0.04v-0.08c0.027-.013.054-0.026,0.08-0.04,0.013-.053.027-0.106,0.04-0.16h0.04c0.013-.04.027-0.08,0.04-0.119l0.08-.041v-0.079h0.04c0.013-.041.026-0.081,0.04-0.121l0.08-.04v-0.08l0.119-.08v-0.08l0.12-.08v-0.08l0.2-.16v-0.08l0.479-.44,0.439-.48h0.08l0.16-.2h0.08c0.026-.04.053-0.08,0.08-0.12h0.08l0.079-.12h0.08c0.014-.027.027-0.054,0.04-0.08l0.12-.04v-0.04h0.08l0.04-.08,0.12-.04v-0.04l0.159-.04,0.04-.08,0.24-.08V137.6h0.08c0.013-.027.026-0.053,0.04-0.08l0.359-.12v-0.04h0.08v-0.04l0.16-.04v-0.04h0.12v-0.04h0.079v-0.04h0.12v-0.04h0.08v-0.04h0.12v-0.04h0.12v-0.04h0.119v-0.04l0.28-.04v-0.04h0.16v-0.04h0.16v-0.04h0.2v-0.04h0.2v-0.04h0.24v-0.04H115v-0.04h0.439a4.416,4.416,0,0,1,1.118-.04v0.04H117v0.04h0.279v0.04h0.24v0.04h0.2v0.04l0.359,0.04v0.04h0.16v0.04l0.279,0.04v0.04h0.12v0.04h0.12v0.04h0.12v0.04h0.08v0.04a1.011,1.011,0,0,1,.4.16h-0.04a1.187,1.187,0,0,1-.24.24l-0.479.48-0.439.48-0.2.16v0.08l-0.12.04c-0.013.027-.026,0.053-0.04,0.08l-0.2.16-0.2.28h-0.08l-0.479.52h-0.4a3.022,3.022,0,0,0-.879-0.04v0.04H115.2v0.04H115v0.04h-0.2v0.04h-0.159v0.04h-0.12v0.04h-0.16v0.04h-0.08v0.04l-0.239.04v0.04l-0.16.04v0.04h-0.12v0.041h-0.08v0.039h-0.08c-0.013.027-.026,0.054-0.04,0.081l-0.239.079c-0.014.027-.027,0.054-0.04,0.08l-0.16.04c-0.026.041-.053,0.08-0.08,0.12h-0.08c-0.013.027-.026,0.054-0.04,0.08h-0.079l-0.12.16a5.165,5.165,0,0,0-1.638,2.24c-0.013.094-.026,0.187-0.04,0.281h-0.039v0.12h-0.04v0.16h-0.04v0.2a4.09,4.09,0,0,0,0,2c0.013,0.12.026,0.24,0.04,0.36h0.04v0.12h0.039c0.014,0.093.027,0.187,0.04,0.28h0.04v0.08h0.04v0.12h0.04l0.04,0.16h0.04l0.12,0.36,0.08,0.04c0.013,0.053.026,0.107,0.04,0.16l0.08,0.04,0.039,0.16,0.12,0.08c0.014,0.04.027,0.08,0.04,0.12h0.04v0.08l0.16,0.12a5.138,5.138,0,0,0,2.8,1.8H115v0.041h0.2v0.039h0.359v0.04a2.66,2.66,0,0,0,.879-0.04H116.8v-0.039H117v-0.041h0.2v-0.039h0.16v-0.041h0.12v-0.039h0.16v-0.04h0.08v-0.04l0.239-.041v-0.039l0.16-.04v-0.041l0.359-.119c0.014-.027.027-0.054,0.04-0.081l0.16-.039,0.04-.08h0.08v-0.041h0.08c0.026-.04.053-0.08,0.08-0.119h0.079c0.014-.027.027-0.054,0.04-0.081h0.08l0.12-.16h0.08q0.18-.2.359-0.4l0.28-.24v-0.08l0.16-.12v-0.08l0.08-.04v-0.08l0.119-.08v-0.08h0.04v-0.08l0.08-.04,0.04-.16,0.08-.04v-0.08h0.04c0.013-.053.026-0.107,0.04-0.16h0.04v-0.12h0.04c0.013-.053.026-0.107,0.04-0.16h0.04l0.039-.2h0.04c0.014-.093.027-0.187,0.04-0.28h0.04v-0.12h0.04v-0.16h0.04v-0.2h0.04v-0.2h0.04v-0.36a4.994,4.994,0,0,0,0-1.24c0.093-.067.186-0.134,0.28-0.2l0.039-.12,0.48-.4v-0.081h0.04l0.159-.2h0.08c0.014-.027.027-0.054,0.04-0.08h0.04l0.359-.44h0.08c0.027-.04.054-0.08,0.08-0.12l0.08-.04v-0.08l0.24-.2c0.013-.027.026-0.054,0.04-0.081h0.079c0.027-.039.054-0.08,0.08-0.119l0.08-.041v-0.079h0.04l0.16-.2h0.12Z" transform="translate(-102 -129)"/>
</svg>
